<svg version="1.1" xmlns="http://www.w3.org/2000/svg" viewBox="0 0 1127.1385489610068 657.5" width="1127.1385489610068" height="657.5" filter="invert(93%) hue-rotate(180deg)">
  <!-- svg-source:excalidraw -->
  
  <defs>
    <style class="style-fonts">
      @font-face {
        font-family: "Virgil";
        src: url("https://excalidraw.com/Virgil.woff2");
      }
      @font-face {
        font-family: "Cascadia";
        src: url("https://excalidraw.com/Cascadia.woff2");
      }
    </style>
  </defs>
  <rect x="0" y="0" width="1127.1385489610068" height="657.5" fill="#ffffff"></rect><g stroke-opacity="0.4" fill-opacity="0.4" stroke-linecap="round" transform="translate(197.22998631774385 147.50000000000003) rotate(0 15 13)"><path d="M-3.41 -1.81 C7.14 2.61, 11.62 -1.21, 33.78 -0.27 M-0.97 -0.07 C9.49 0.85, 14.61 1.09, 31.55 -1.6 M28.16 0.19 C29.28 11.3, 32.8 20.48, 30.15 28.25 M28.11 1.69 C31.87 8.4, 31.19 20.35, 29.43 25.52 M26.18 28.48 C20.87 27.64, 13.34 23.39, -2.67 26.28 M31.01 24.63 C19.69 24.98, 7.83 24.96, 1.98 24.21 M3.34 22.61 C-2.18 19.95, -3.98 13.15, 0.41 1.33 M-0.5 24.02 C-1.44 17.89, 1.68 9.51, 0.99 1.05" stroke="#000000" stroke-width="2" fill="none"></path></g><g stroke-opacity="0.4" fill-opacity="0.4" stroke-linecap="round" transform="translate(197.7474410338964 195.10000000000005) rotate(0 15 13)"><path d="M0.91 2.53 C7.75 -1.02, 20.99 0, 28.67 -3.98 M1.48 0.61 C6.43 0.88, 17.21 -1.58, 30.78 0.79 M29.07 2.49 C32.35 12.36, 29.91 21.28, 33.69 29.98 M31.35 -1.8 C30.18 5.84, 28.93 11.31, 28.66 25.89 M27.86 28.11 C20.63 24.22, 13.95 26.66, 2.31 29.16 M30.42 25.33 C22.04 24.9, 17.47 23.79, -1.05 26.59 M-2.03 26.38 C-4.26 20.62, -0.02 16.52, -0.05 2.15 M-1.16 25.65 C2.09 15.82, 1.12 8.61, 0.66 0.04" stroke="#000000" stroke-width="2" fill="none"></path></g><g stroke-opacity="0.4" fill-opacity="0.4" stroke-linecap="round" transform="translate(198.26489575004894 242.70000000000002) rotate(0 15 13)"><path d="M-0.85 -1.29 C11.43 -0.65, 13.96 -4.36, 28.44 -1.95 M-1.4 0.86 C10.45 -1.78, 18.57 0.61, 31.32 -0.92 M32.59 2.85 C30.03 10.18, 33.57 19.82, 27.07 22.22 M30.68 -0.05 C29.78 9.52, 29.01 19.89, 28.46 24.09 M27.32 23.85 C16.48 26.6, 10.59 29.48, -2.33 28.02 M29.29 25.31 C25.03 24, 15.07 26.39, -1.84 27.67 M-3.83 26.02 C0.68 21.73, 0.21 16.96, 2.19 -1.01 M1.96 25.04 C1.3 21.83, 0.96 15.6, -0.42 -0.4" stroke="#000000" stroke-width="2" fill="none"></path></g><g stroke-opacity="0.4" fill-opacity="0.4" stroke-linecap="round" transform="translate(198.78235046620148 337.9) rotate(0 15 13)"><path d="M3.78 -0.27 C9.57 -3.79, 20.24 -1.75, 29.86 2.97 M1.55 -1.6 C10.7 0.53, 21.15 -1.18, 30.1 -0.46 M30.15 2.25 C34.03 13.39, 27.41 15.05, 33.39 28.71 M29.43 -0.48 C28.84 5.35, 28.64 9.01, 31.24 24.93 M27.33 26.28 C21.73 28.84, 6.51 27.7, -2.74 26.83 M31.98 24.21 C20.95 26.38, 12.16 27.46, -1.7 24.99 M0.41 27.33 C0.45 20.1, 2.68 8.9, -3.97 -2.33 M0.99 27.05 C0.15 18.69, -0.93 10.9, 1.56 -1.84" stroke="#000000" stroke-width="2" fill="none"></path></g><g stroke-opacity="0.4" fill-opacity="0.4" stroke-linecap="round" transform="translate(199.29980518235402 290.29999999999995) rotate(0 15 13)"><path d="M-1.33 -3.98 C6.47 -1.91, 15.92 3.01, 31.22 -2.8 M0.78 0.79 C11.61 -0.44, 20.68 0.02, 31.24 1.3 M33.69 3.98 C27.09 5.87, 33.41 22.01, 26.4 27.35 M28.66 -0.11 C28.31 5.82, 31.09 14.4, 31.05 24.66 M32.31 29.16 C20.28 28.07, 12.48 26.87, -1.34 24.58 M28.95 26.59 C20.19 27.13, 12.36 24.45, 0.19 24.09 M-0.05 28.15 C2.13 17.18, -4.02 8.05, -0.69 3.92 M0.66 26.04 C-0.68 19.04, 1.3 11.05, 0.96 0.77" stroke="#000000" stroke-width="2" fill="none"></path></g><g stroke-linecap="round"><g stroke-opacity="0.4" fill-opacity="0.4" transform="translate(253.3034492860196 158.4946658750258) rotate(358.9859322483508 14.427955455654512 0.517923979089062)"><path d="M-0.07 -0.63 C5.06 -0.61, 25.37 -0.22, 30.42 -0.11 M-1.56 1.65 C3.4 1.8, 24.13 0.99, 29.25 0.84" stroke="#000000" stroke-width="1" fill="none"></path></g><g stroke-opacity="0.4" fill-opacity="0.4" transform="translate(253.3034492860196 158.4946658750258) rotate(358.9859322483508 14.427955455654512 0.517923979089062)"><path d="M14.13 6.06 C17.42 4.25, 21.46 3.49, 28.36 1.4 M15.59 7.04 C19.95 4.75, 24.46 1.81, 29.11 0.17" stroke="#000000" stroke-width="1" fill="none"></path></g><g stroke-opacity="0.4" fill-opacity="0.4" transform="translate(253.3034492860196 158.4946658750258) rotate(358.9859322483508 14.427955455654512 0.517923979089062)"><path d="M13.77 -4.49 C17.15 -3.42, 21.28 -1.31, 28.36 1.4 M15.24 -3.51 C19.71 -2.13, 24.34 -1.39, 29.11 0.17" stroke="#000000" stroke-width="1" fill="none"></path></g></g><mask></mask><g stroke-linecap="round"><g stroke-opacity="0.4" fill-opacity="0.4" transform="translate(249.91509171811038 207.65781175675906) rotate(358.9859322483508 17.0857909647479 0.15165180526508948)"><path d="M0.06 -0.28 C5.85 0.11, 29.61 1.55, 35.54 1.77 M-1.37 -1.47 C4.26 -1.37, 28.87 -0.58, 34.99 0.06" stroke="#000000" stroke-width="1" fill="none"></path></g><g stroke-opacity="0.4" fill-opacity="0.4" transform="translate(249.91509171811038 207.65781175675906) rotate(358.9859322483508 17.0857909647479 0.15165180526508948)"><path d="M17.89 6.06 C25.55 4.41, 30.6 2.35, 36.6 1.79 M18.88 4.19 C22.42 3.7, 25.66 2.4, 34.41 0.01" stroke="#000000" stroke-width="1" fill="none"></path></g><g stroke-opacity="0.4" fill-opacity="0.4" transform="translate(249.91509171811038 207.65781175675906) rotate(358.9859322483508 17.0857909647479 0.15165180526508948)"><path d="M18.63 -5.82 C25.97 -3.13, 30.74 -0.84, 36.6 1.79 M19.62 -7.69 C22.88 -5.48, 25.95 -4.09, 34.41 0.01" stroke="#000000" stroke-width="1" fill="none"></path></g></g><mask></mask><g stroke-linecap="round"><g stroke-opacity="0.4" fill-opacity="0.4" transform="translate(253.0309680349385 255.46199033419705) rotate(358.9859322483508 17.657719947971202 0.8287820900245606)"><path d="M0.75 0.78 C6.68 0.83, 29.85 -0.01, 35.64 0.04 M-0.32 0.14 C5.52 0.43, 29.24 1.74, 35.14 1.61" stroke="#000000" stroke-width="1" fill="none"></path></g><g stroke-opacity="0.4" fill-opacity="0.4" transform="translate(253.0309680349385 255.46199033419705) rotate(358.9859322483508 17.657719947971202 0.8287820900245606)"><path d="M19.79 8.43 C23.76 6.36, 30.32 5.41, 33.86 -0.04 M18.96 7.17 C24.71 4.98, 30.72 2.99, 34.47 0.77" stroke="#000000" stroke-width="1" fill="none"></path></g><g stroke-opacity="0.4" fill-opacity="0.4" transform="translate(253.0309680349385 255.46199033419705) rotate(358.9859322483508 17.657719947971202 0.8287820900245606)"><path d="M20.06 -3.47 C23.92 -1.9, 30.4 0.77, 33.86 -0.04 M19.23 -4.73 C24.96 -2.34, 30.86 0.25, 34.47 0.77" stroke="#000000" stroke-width="1" fill="none"></path></g></g><mask></mask><g stroke-linecap="round"><g stroke-opacity="0.4" fill-opacity="0.4" transform="translate(253.52641523864827 303.6179696392527) rotate(358.9859322483508 15.679225630317546 0.5568739430788696)"><path d="M0.85 0.04 C5.98 0.27, 26.32 2.09, 31.51 2.1 M-0.16 -0.98 C4.81 -1.13, 25.58 0.24, 30.92 0.56" stroke="#000000" stroke-width="1" fill="none"></path></g><g stroke-opacity="0.4" fill-opacity="0.4" transform="translate(253.52641523864827 303.6179696392527) rotate(358.9859322483508 15.679225630317546 0.5568739430788696)"><path d="M16.18 5.8 C22.88 4.78, 25.68 0.2, 32.23 1.61 M15.9 4.74 C18.7 3.97, 21.73 2.36, 31.4 0.15" stroke="#000000" stroke-width="1" fill="none"></path></g><g stroke-opacity="0.4" fill-opacity="0.4" transform="translate(253.52641523864827 303.6179696392527) rotate(358.9859322483508 15.679225630317546 0.5568739430788696)"><path d="M16.84 -4.73 C23.37 -1.94, 25.93 -2.7, 32.23 1.61 M16.56 -5.79 C19.25 -4.35, 22.15 -3.75, 31.4 0.15" stroke="#000000" stroke-width="1" fill="none"></path></g></g><mask></mask><g stroke-linecap="round"><g stroke-opacity="0.4" fill-opacity="0.4" transform="translate(254.14390491948166 351.7028581567208) rotate(358.9859322483508 15.801585199856447 0.6501804523722683)"><path d="M0.68 1.11 C5.87 1.12, 27.19 -0.04, 32.03 0.12 M-0.43 0.64 C4.64 0.78, 26.31 1.26, 31.71 1.19" stroke="#000000" stroke-width="1" fill="none"></path></g><g stroke-opacity="0.4" fill-opacity="0.4" transform="translate(254.14390491948166 351.7028581567208) rotate(358.9859322483508 15.801585199856447 0.6501804523722683)"><path d="M18.6 7.9 C21.44 2.9, 29.27 3.49, 30.32 1.71 M16.66 6.32 C20.92 4.12, 26.31 2.91, 32.12 0.67" stroke="#000000" stroke-width="1" fill="none"></path></g><g stroke-opacity="0.4" fill-opacity="0.4" transform="translate(254.14390491948166 351.7028581567208) rotate(358.9859322483508 15.801585199856447 0.6501804523722683)"><path d="M18.68 -2.66 C21.49 -3.73, 29.29 0.77, 30.32 1.71 M16.73 -4.23 C20.94 -3.29, 26.31 -1.37, 32.12 0.67" stroke="#000000" stroke-width="1" fill="none"></path></g></g><mask></mask><g stroke-opacity="0.4" fill-opacity="0.4" stroke-linecap="round" transform="translate(199.8172598985068 385.5) rotate(0 15 13)"><path d="M1.5 0.69 C7.6 3.35, 14.33 -3.19, 27.52 -3.95 M-0.18 1.26 C8.65 -1.08, 19.89 2.04, 28.35 0.25 M26.88 -2.16 C28.77 12.76, 29.86 16.46, 29.88 26.71 M29.01 -0.2 C30.85 8.02, 29.39 17.59, 28.96 26.87 M26.38 28.2 C20.46 23.98, 18.05 27.5, -1.51 28.29 M31.3 26.37 C18.35 27.35, 9.84 26.99, -1.98 24.3 M-2.16 26.44 C-3.17 16.86, 0.31 10.3, 2.07 0.9 M-0.73 27.31 C-0.73 19.77, -1.4 13.11, -1.12 -0.56" stroke="#000000" stroke-width="2" fill="none"></path></g><g stroke-linecap="round"><g stroke-opacity="0.4" fill-opacity="0.4" transform="translate(253.3060024715836 398.9058214944398) rotate(358.9859322483508 15.171608530688331 1.1412112118968025)"><path d="M-0.78 0.97 C4.3 1.16, 25.74 0.41, 31.12 0.54 M1.02 0.44 C5.9 0.84, 25.3 1.95, 30.32 1.84" stroke="#000000" stroke-width="1" fill="none"></path></g><g stroke-opacity="0.4" fill-opacity="0.4" transform="translate(253.3060024715836 398.9058214944398) rotate(358.9859322483508 15.171608530688331 1.1412112118968025)"><path d="M16.95 7.13 C20.33 6, 27.07 3.24, 29.38 2.84 M16.32 7.29 C19.61 4.42, 25.37 3.42, 30.66 1.42" stroke="#000000" stroke-width="1" fill="none"></path></g><g stroke-opacity="0.4" fill-opacity="0.4" transform="translate(253.3060024715836 398.9058214944398) rotate(358.9859322483508 15.171608530688331 1.1412112118968025)"><path d="M17.2 -3.42 C20.44 -0.81, 27.09 0.18, 29.38 2.84 M16.58 -3.26 C19.74 -2.77, 25.42 -0.41, 30.66 1.42" stroke="#000000" stroke-width="1" fill="none"></path></g></g><mask></mask><g stroke-opacity="0.4" fill-opacity="0.4" transform="translate(211.19724952253023 148.50000000000003) rotate(0 2.7099990844726562 12.5)"><text x="0" y="0" font-family="Virgil, Segoe UI Emoji" font-size="20px" fill="#000000" text-anchor="start" style="white-space: pre;" direction="ltr" dominant-baseline="text-before-edge">1</text></g><g stroke-opacity="0.4" fill-opacity="0.4" transform="translate(205.37725745710054 193.10000000000005) rotate(0 7.1199951171875 12.5)"><text x="0" y="0" font-family="Virgil, Segoe UI Emoji" font-size="20px" fill="#000000" text-anchor="start" style="white-space: pre;" direction="ltr" dominant-baseline="text-before-edge">2</text></g><g stroke-opacity="0.4" fill-opacity="0.4" transform="translate(208.9972678330771 240.70000000000002) rotate(0 6.809989929199219 12.5)"><text x="0" y="0" font-family="Virgil, Segoe UI Emoji" font-size="20px" fill="#000000" text-anchor="start" style="white-space: pre;" direction="ltr" dominant-baseline="text-before-edge">3</text></g><g stroke-opacity="0.4" fill-opacity="0.4" transform="translate(209.8172598985068 290.30000000000007) rotate(0 6.399993896484375 12.5)"><text x="0" y="0" font-family="Virgil, Segoe UI Emoji" font-size="20px" fill="#000000" text-anchor="start" style="white-space: pre;" direction="ltr" dominant-baseline="text-before-edge">4</text></g><g stroke-opacity="0.4" fill-opacity="0.4" transform="translate(206.25726233991304 336.9000000000001) rotate(0 6.17999267578125 12.5)"><text x="0" y="0" font-family="Virgil, Segoe UI Emoji" font-size="20px" fill="#000000" text-anchor="start" style="white-space: pre;" direction="ltr" dominant-baseline="text-before-edge">5</text></g><g stroke-opacity="0.4" fill-opacity="0.4" transform="translate(206.8172598985068 387.5000000000001) rotate(0 6.399993896484375 12.5)"><text x="0" y="0" font-family="Virgil, Segoe UI Emoji" font-size="20px" fill="#000000" text-anchor="start" style="white-space: pre;" direction="ltr" dominant-baseline="text-before-edge">6</text></g><g stroke-opacity="0.5" fill-opacity="0.5" transform="translate(291.9373313096396 148.51633425920582) rotate(0 68.5601577758789 10)"><text x="0" y="0" font-family="Virgil, Segoe UI Emoji" font-size="16px" fill="#000000" text-anchor="start" style="white-space: pre;" direction="ltr" dominant-baseline="text-before-edge">1_validate_fields</text></g><g stroke-opacity="0.5" fill-opacity="0.5" transform="translate(291.9373313096396 196.4091128514947) rotate(0 80.41617584228516 10)"><text x="0" y="0" font-family="Virgil, Segoe UI Emoji" font-size="16px" fill="#000000" text-anchor="start" style="white-space: pre;" direction="ltr" dominant-baseline="text-before-edge">2_validate_oneness</text></g><g stroke-opacity="0.5" fill-opacity="0.5" transform="translate(294.9373313096396 247.30189144378366) rotate(0 90.59220886230469 10)"><text x="0" y="0" font-family="Virgil, Segoe UI Emoji" font-size="16px" fill="#000000" text-anchor="start" style="white-space: pre;" direction="ltr" dominant-baseline="text-before-edge">3_validate_workdates</text></g><g stroke-opacity="0.5" fill-opacity="0.5" transform="translate(294.9373313096396 296.1946700360726) rotate(0 71.20816040039062 10)"><text x="0" y="0" font-family="Virgil, Segoe UI Emoji" font-size="16px" fill="#000000" text-anchor="start" style="white-space: pre;" direction="ltr" dominant-baseline="text-before-edge">4_validate_hours</text></g><g stroke-opacity="0.5" fill-opacity="0.5" transform="translate(297.9373313096396 345.08744862836147) rotate(0 69.0401382446289 10)"><text x="0" y="0" font-family="Virgil, Segoe UI Emoji" font-size="16px" fill="#000000" text-anchor="start" style="white-space: pre;" direction="ltr" dominant-baseline="text-before-edge">5_Delete_values</text></g><g stroke-opacity="0.5" fill-opacity="0.5" transform="translate(294.9373313096396 388.9802272206505) rotate(0 61.984130859375 10)"><text x="0" y="0" font-family="Virgil, Segoe UI Emoji" font-size="16px" fill="#000000" text-anchor="start" style="white-space: pre;" direction="ltr" dominant-baseline="text-before-edge">6_Save_values</text></g><g stroke-opacity="0.6" fill-opacity="0.6" transform="translate(522.8172598985068 236.50000000000003) rotate(0 297.16064453125 90)"><text x="0" y="0" font-family="Virgil, Segoe UI Emoji" font-size="16px" fill="#000000" text-anchor="start" style="white-space: pre;" direction="ltr" dominant-baseline="text-before-edge">Scenario Outline: Validate Oneness of the Allocation</text><text x="0" y="20" font-family="Virgil, Segoe UI Emoji" font-size="16px" fill="#000000" text-anchor="start" style="white-space: pre;" direction="ltr" dominant-baseline="text-before-edge">  Given the existing Allocation</text><text x="0" y="40" font-family="Virgil, Segoe UI Emoji" font-size="16px" fill="#000000" text-anchor="start" style="white-space: pre;" direction="ltr" dominant-baseline="text-before-edge">   | User       | Activity    | WorkDate     | Hours    |</text><text x="0" y="60" font-family="Virgil, Segoe UI Emoji" font-size="16px" fill="#000000" text-anchor="start" style="white-space: pre;" direction="ltr" dominant-baseline="text-before-edge">   | Eduardo   | CCBC      | 2023-01-04   | 8        |</text><text x="0" y="80" font-family="Virgil, Segoe UI Emoji" font-size="16px" fill="#000000" text-anchor="start" style="white-space: pre;" direction="ltr" dominant-baseline="text-before-edge">   | Gabriel    | CCBC      | 2023-01-04   | 8        |</text><text x="0" y="100" font-family="Virgil, Segoe UI Emoji" font-size="16px" fill="#000000" text-anchor="start" style="white-space: pre;" direction="ltr" dominant-baseline="text-before-edge">  And new Allocation with user "&lt;user&gt;" "&lt;activity&gt;" "&lt;workdate&gt;" "&lt;result&gt;"</text><text x="0" y="120" font-family="Virgil, Segoe UI Emoji" font-size="16px" fill="#000000" text-anchor="start" style="white-space: pre;" direction="ltr" dominant-baseline="text-before-edge">  When I try to save the Allocation Oneness</text><text x="0" y="140" font-family="Virgil, Segoe UI Emoji" font-size="16px" fill="#000000" text-anchor="start" style="white-space: pre;" direction="ltr" dominant-baseline="text-before-edge">  Then "&lt;result&gt;"</text><text x="0" y="160" font-family="Virgil, Segoe UI Emoji" font-size="16px" fill="#000000" text-anchor="start" style="white-space: pre;" direction="ltr" dominant-baseline="text-before-edge"></text></g><g stroke-opacity="0.6" fill-opacity="0.6" stroke-linecap="round" transform="translate(185.8172598985068 128.50000000000003) rotate(0 156 174)"><path d="M32 0 M32 0 C109.46 -5.69, 182.75 -5.84, 280 0 M32 0 C103.59 -0.54, 173.68 -0.79, 280 0 M280 0 C304.88 0.33, 311.16 8.4, 312 32 M280 0 C302.5 1.56, 315.21 13.65, 312 32 M312 32 C308.98 133.56, 309.47 233.33, 312 316 M312 32 C316.25 95.29, 315.71 161.64, 312 316 M312 316 C314.51 336, 297.78 345.98, 280 348 M312 316 C314.95 341.37, 305.26 347.82, 280 348 M280 348 C217.87 347.41, 151.52 346.35, 32 348 M280 348 C214.31 349.97, 150.67 350.17, 32 348 M32 348 C9.52 344.95, -0.45 339.79, 0 316 M32 348 C10.48 345.02, -3.77 337.31, 0 316 M0 316 C-2.28 251.86, -2.78 188.42, 0 32 M0 316 C-1.94 238.05, -1.06 161.16, 0 32 M0 32 C-2.69 8.93, 9.2 -1.5, 32 0 M0 32 C-2.21 13.84, 7.26 3.67, 32 0" stroke="#000000" stroke-width="2" fill="none"></path></g><g stroke-opacity="0.6" fill-opacity="0.6" transform="translate(186.8172598985068 92.00000000000003) rotate(0 44.409950256347656 12.5)"><text x="0" y="0" font-family="Virgil, Segoe UI Emoji" font-size="20px" fill="#000000" text-anchor="start" style="white-space: pre;" direction="ltr" dominant-baseline="text-before-edge">Features</text></g><g stroke-opacity="0.6" fill-opacity="0.6" transform="translate(195.8172598985068 429.92676636584986) rotate(0 146.92031860351562 10)"><text x="0" y="0" font-family="Virgil, Segoe UI Emoji" font-size="16px" fill="#000000" text-anchor="start" style="white-space: pre;" direction="ltr" dominant-baseline="text-before-edge">BDD-Insert-timesheet_hours.feature</text></g><g stroke-opacity="0.5" fill-opacity="0.5" transform="translate(74.54229651960031 10) rotate(0 166.55978393554688 25)"><text x="0" y="0" font-family="Virgil, Segoe UI Emoji" font-size="20px" fill="#000000" text-anchor="start" style="white-space: pre;" direction="ltr" dominant-baseline="text-before-edge">Project is split by scenario which </text><text x="0" y="25" font-family="Virgil, Segoe UI Emoji" font-size="20px" fill="#000000" text-anchor="start" style="white-space: pre;" direction="ltr" dominant-baseline="text-before-edge">has single responsability.</text></g><g stroke-linecap="round"><g stroke-opacity="0.5" fill-opacity="0.5" transform="translate(64.81725989850679 65.50000000000003) rotate(0 19.83719030725547 102.86844358395784)"><path d="M0.52 -1.65 C-8.56 28.65, -67.86 145.53, -52.2 179.84 C-36.54 214.14, 70.23 200.22, 94.49 204.18 M-2.64 3.63 C-11.07 33.23, -62.83 141.32, -46.99 175.28 C-31.15 209.24, 69.07 202.27, 92.41 207.39" stroke="#000000" stroke-width="2" fill="none"></path></g><g stroke-opacity="0.5" fill-opacity="0.5" transform="translate(64.81725989850679 65.50000000000003) rotate(0 19.83719030725547 102.86844358395784)"><path d="M61.18 212.4 C75.9 211.58, 86.01 206.83, 91.82 209.68 M64.96 213.72 C73.43 212.3, 85.24 210.15, 93.79 208.32" stroke="#000000" stroke-width="2" fill="none"></path></g><g stroke-opacity="0.5" fill-opacity="0.5" transform="translate(64.81725989850679 65.50000000000003) rotate(0 19.83719030725547 102.86844358395784)"><path d="M62.7 191.93 C76.54 198.96, 86.08 202.04, 91.82 209.68 M66.48 193.25 C74.27 199.37, 85.52 204.78, 93.79 208.32" stroke="#000000" stroke-width="2" fill="none"></path></g></g><mask></mask><g stroke-linecap="round"><g stroke-opacity="0.5" fill-opacity="0.5" transform="translate(207.8172598985068 147.50000000000003) rotate(0 -31.227599604273905 134.5202298251167)"><path d="M1.63 -0.37 C-9.07 21.63, -61.29 89.33, -63.97 134.74 C-66.65 180.14, -22.72 249.65, -14.46 272.07 M-0.92 -3.03 C-10.77 20.43, -57.3 92.11, -58.64 137.14 C-59.98 182.16, -16.21 244.82, -8.96 267.13" stroke="#000000" stroke-width="2" fill="none"></path></g></g><mask></mask><g stroke-opacity="0.5" fill-opacity="0.5" transform="translate(136.8172598985068 572.5) rotate(0 285.14971923828125 37.5)"><text x="0" y="0" font-family="Virgil, Segoe UI Emoji" font-size="20px" fill="#000000" text-anchor="start" style="white-space: pre;" direction="ltr" dominant-baseline="text-before-edge">BDD-Insert*** dot feature file contains all steps that </text><text x="0" y="25" font-family="Virgil, Segoe UI Emoji" font-size="20px" fill="#000000" text-anchor="start" style="white-space: pre;" direction="ltr" dominant-baseline="text-before-edge">describes the intended behavior of a software system </text><text x="0" y="50" font-family="Virgil, Segoe UI Emoji" font-size="20px" fill="#000000" text-anchor="start" style="white-space: pre;" direction="ltr" dominant-baseline="text-before-edge">from a user's perspective using Gherkin syntax</text></g><g stroke-linecap="round"><g stroke-opacity="0.5" fill-opacity="0.5" transform="translate(190.8172598985068 440.5) rotate(0 152.44709194768217 24.5639200569166)"><path d="M0.04 1.93 C25.56 10.15, 101.09 48.32, 152.46 48.62 C203.84 48.91, 282.68 11.03, 308.28 3.68 M-3.38 0.51 C21.78 8.07, 98.17 43.92, 149.93 45.02 C201.69 46.13, 281.14 14.78, 307.17 7.16" stroke="#000000" stroke-width="2" fill="none"></path></g></g><mask></mask><g stroke-linecap="round"><g stroke-opacity="0.5" fill-opacity="0.5" transform="translate(356.64664056723996 564.5) rotate(0 -3.069548235276443 -38.66532734800131)"><path d="M-2.47 0.81 C-3.41 -11.28, -7.12 -61.56, -7.52 -73.79 M1.38 -1.22 C1.53 -14.04, -0.78 -65.56, -2.04 -78.14" stroke="#000000" stroke-width="2" fill="none"></path></g><g stroke-opacity="0.5" fill-opacity="0.5" transform="translate(356.64664056723996 564.5) rotate(0 -3.069548235276443 -38.66532734800131)"><path d="M11.24 -53.12 C9.26 -55.94, 8.26 -60.76, -2.06 -75.79 M10.58 -50.37 C7.34 -57.46, 5.43 -65.58, -0.13 -76.93" stroke="#000000" stroke-width="2" fill="none"></path></g><g stroke-opacity="0.5" fill-opacity="0.5" transform="translate(356.64664056723996 564.5) rotate(0 -3.069548235276443 -38.66532734800131)"><path d="M-9.24 -51.75 C-6.46 -54.52, -2.72 -59.66, -2.06 -75.79 M-9.9 -49 C-8.24 -56.77, -5.22 -65.23, -0.13 -76.93" stroke="#000000" stroke-width="2" fill="none"></path></g></g><mask></mask><g stroke-opacity="0.5" fill-opacity="0.5" stroke-linecap="round" transform="translate(662.8172598985068 465.5) rotate(0 99.5 50)"><path d="M125 12.75 M125 12.75 C132.91 15.57, 147.36 26.23, 174 38.25 M125 12.75 C142.33 23.61, 158.9 31.16, 174 38.25 M174 38.25 C201.06 47.5, 196.42 47.99, 174 63.75 M174 38.25 C200.1 48.1, 198.93 49.75, 174 63.75 M174 63.75 C161.27 69.9, 147.54 74.56, 125 87.25 M174 63.75 C156.62 73.75, 139.97 79.89, 125 87.25 M125 87.25 C103.66 100.09, 98.75 101.2, 75 87.25 M125 87.25 C103.43 98.28, 97.78 97.07, 75 87.25 M75 87.25 C58.75 78.57, 42.34 73.87, 25 63.75 M75 87.25 C57 81.1, 40.35 70.73, 25 63.75 M25 63.75 C0.43 47.84, -1.13 54.26, 25 38.25 M25 63.75 C-4.17 50.33, 1.74 51.98, 25 38.25 M25 38.25 C38.42 29.78, 50.43 21.61, 75 12.75 M25 38.25 C37.44 31.19, 47.96 27.85, 75 12.75 M75 12.75 C100.22 3.4, 97.11 -0.22, 125 12.75 M75 12.75 C95.52 3.03, 96.55 -0.9, 125 12.75" stroke="#000000" stroke-width="2" fill="none"></path></g><g stroke-opacity="0.5" fill-opacity="0.5" transform="translate(721.4391699937216 495.5) rotate(0 41.128089904785156 20)"><text x="41.128089904785156" y="0" font-family="Virgil, Segoe UI Emoji" font-size="16px" fill="#000000" text-anchor="middle" style="white-space: pre;" direction="ltr" dominant-baseline="text-before-edge">exemple </text><text x="41.128089904785156" y="20" font-family="Virgil, Segoe UI Emoji" font-size="16px" fill="#000000" text-anchor="middle" style="white-space: pre;" direction="ltr" dominant-baseline="text-before-edge">scenario 2</text></g><g stroke-linecap="round"><g stroke-opacity="0.5" fill-opacity="0.5" transform="translate(660.9773701926244 519.5) rotate(0 -58.44586345809478 26.01487283300611)"><path d="M-0.16 1.05 C-19.21 9.88, -98.13 44.19, -116.73 52.87 M-3.7 -0.85 C-21.7 7.12, -93.71 40.16, -111.82 48.34" stroke="#000000" stroke-width="2" fill="none"></path></g><g stroke-opacity="0.5" fill-opacity="0.5" transform="translate(660.9773701926244 519.5) rotate(0 -58.44586345809478 26.01487283300611)"><path d="M-88.92 23.37 C-93.74 34.88, -97.89 36.5, -113.94 47.3 M-88.7 26.39 C-97.29 32.72, -100.81 38.64, -112.1 47.65" stroke="#000000" stroke-width="2" fill="none"></path></g><g stroke-opacity="0.5" fill-opacity="0.5" transform="translate(660.9773701926244 519.5) rotate(0 -58.44586345809478 26.01487283300611)"><path d="M-80.41 42.05 C-87.02 49.58, -92.98 47.23, -113.94 47.3 M-80.2 45.06 C-90.5 47.21, -95.97 48.83, -112.1 47.65" stroke="#000000" stroke-width="2" fill="none"></path></g></g><mask></mask><g stroke-linecap="round"><g stroke-opacity="0.5" fill-opacity="0.5" transform="translate(763.021720261082 458.15649856307925) rotate(0 -3.649250374737676 -40.56240711488485)"><path d="M1.41 -2.44 C0.03 -16.48, -5.5 -70.2, -6.73 -83.54 M-1.27 2.41 C-3.12 -11.2, -7.73 -64.88, -8.71 -79.84" stroke="#000000" stroke-width="2" fill="none"></path></g><g stroke-opacity="0.5" fill-opacity="0.5" transform="translate(763.021720261082 458.15649856307925) rotate(0 -3.649250374737676 -40.56240711488485)"><path d="M0.22 -51.85 C-0.66 -60.32, -3.55 -71.4, -7.27 -82.07 M2.04 -54.27 C2.8 -59.04, 0.07 -67, -9.65 -79.75" stroke="#000000" stroke-width="2" fill="none"></path></g><g stroke-opacity="0.5" fill-opacity="0.5" transform="translate(763.021720261082 458.15649856307925) rotate(0 -3.649250374737676 -40.56240711488485)"><path d="M-20.24 -50.26 C-13.88 -59.5, -9.51 -71.14, -7.27 -82.07 M-18.42 -52.68 C-12.6 -58.12, -10.29 -66.46, -9.65 -79.75" stroke="#000000" stroke-width="2" fill="none"></path></g></g><mask></mask></svg>